<svg width="256" height="256" viewBox="0 0 256 256" fill="none" xmlns="http://www.w3.org/2000/svg">
<g clip-path="url(#clip0_1_2)">
<rect width="256" height="256" rx="16" fill="white"/>
<path d="M103.544 54.696C103.544 59.1333 103.459 64.3387 103.288 70.312C103.117 76.1147 102.947 80.552 102.776 83.624C102.264 92.328 102.008 101.032 102.008 109.736C102.008 116.221 102.264 122.963 102.776 129.96C108.067 122.28 113.784 116.648 119.928 113.064C126.072 109.48 133.496 107.688 142.2 107.688C148.515 107.688 154.403 110.504 159.864 116.136C165.325 121.768 168.824 128.339 170.36 135.848C170.872 142.504 171.128 150.611 171.128 160.168C171.128 166.312 171.469 174.333 172.152 184.232C172.493 187.987 173.432 191.485 174.968 194.728C176.675 197.971 179.064 199.592 182.136 199.592C183.672 199.592 184.867 199.507 185.72 199.336C186.744 199.165 187.683 199.08 188.536 199.08C190.925 199.08 192.547 199.677 193.4 200.872C194.424 202.067 194.936 203.773 194.936 205.992C194.936 210.088 192.888 213.16 188.792 215.208C184.696 217.256 180.941 218.28 177.528 218.28C165.24 218.28 156.792 213.16 152.184 202.92C149.624 197.117 148.003 189.608 147.32 180.392C146.637 171.005 146.296 160.083 146.296 147.624C146.296 135.336 142.115 129.192 133.752 129.192C129.144 129.192 124.451 131.667 119.672 136.616C115.064 141.395 111.224 147.795 108.152 155.816C105.08 163.667 103.544 171.859 103.544 180.392L103.8 207.016C103.8 210.771 102.349 213.587 99.448 215.464C96.5467 217.171 93.816 218.024 91.256 218.024C87.5013 218.024 84.088 216.915 81.016 214.696C77.944 212.307 76.408 209.661 76.408 206.76C77.6027 193.96 78.2 172.541 78.2 142.504C78.2 137.043 77.7733 116.819 76.92 81.832L76.152 58.28C76.152 54.5253 77.8587 51.2827 81.272 48.552C84.6853 45.6507 88.5253 44.2 92.792 44.2C96.5467 44.2 99.2773 45.0533 100.984 46.76C102.691 48.4667 103.544 51.112 103.544 54.696Z" fill="url(#paint0_linear_1_2)"/>
</g>
<defs>
<linearGradient id="paint0_linear_1_2" x1="59" y1="44" x2="248" y2="255" gradientUnits="userSpaceOnUse">
<stop stop-color="#A855F7"/>
<stop offset="1" stop-color="#EC4899" stop-opacity="0"/>
</linearGradient>
<clipPath id="clip0_1_2">
<rect width="256" height="256" rx="16" fill="white"/>
</clipPath>
</defs>
</svg>
